<svg t="1717481594162" class="icon" viewBox="0 0 1024 1024" version="1.1" xmlns="http://www.w3.org/2000/svg" p-id="1528" width="200" height="200"><path d="M161.328 870.896a381.336 94.504 0 1 0 762.672 0 381.336 94.504 0 1 0-762.672 0Z" fill="#B8CBCD" p-id="1529"></path><path d="M526.224 616.48l287.312-446.584-433.072 411.24z" fill="#B9E3ED" p-id="1530"></path><path d="M842.304 127.504L397.04 587.848l-314.184-15.4z" fill="#B9E3ED" p-id="1531"></path><path d="M397.04 603.848a26.16 26.16 0 0 1-0.784-0.016L82.08 588.432a16.008 16.008 0 0 1-7.304-29.784l759.448-444.936a16 16 0 0 1 19.584 24.928L408.536 598.976a15.968 15.968 0 0 1-11.496 4.872z m-259.744-44.752l253.28 12.424 358.96-371.12-612.24 358.696z" fill="#324654" p-id="1532"></path><path d="M842.304 127.504l0.064 0.832-329.904 498.584L774.312 895.2z" fill="#B9E3ED" p-id="1533"></path><path d="M774.312 911.2a16.016 16.016 0 0 1-11.456-4.832L501.008 638.096a16 16 0 0 1-1.888-20l328.056-495.792a16 16 0 0 1 15.136-10.8h0.104a15.992 15.992 0 0 1 15.848 14.8l0.064 0.832a15.76 15.76 0 0 1-0.336 4.672l-67.736 764.816a16.008 16.008 0 0 1-15.944 14.576zM532.928 624.984L761.44 859.12l59.256-669.04-287.768 434.904z" fill="#324654" p-id="1534"></path><path d="M407.048 579.04l50.344 246.808 62.928-210.8" fill="#B9E3ED" p-id="1535"></path><path d="M457.4 841.848l-0.72-0.016a16 16 0 0 1-14.968-12.792l-50.344-246.816a16 16 0 0 1 12.488-18.872 15.968 15.968 0 0 1 18.872 12.488l37.584 184.28 44.68-149.656a15.952 15.952 0 0 1 19.904-10.752 15.992 15.992 0 0 1 10.752 19.904l-62.928 210.808a15.992 15.992 0 0 1-15.32 11.424z" fill="#324654" p-id="1536"></path><path d="M457.392 825.848l120.304-134.848-62.6-68.968z" fill="#B9E3ED" p-id="1537"></path><path d="M457.384 841.848a16.016 16.016 0 0 1-15.392-20.36l57.704-203.824a16 16 0 0 1 27.248-6.384l62.6 68.968c5.504 6.056 5.544 15.296 0.096 21.4l-120.304 134.848a16 16 0 0 1-11.952 5.352z m65.248-187.704l-30.912 109.2 64.456-72.248-33.544-36.952z" fill="#324654" p-id="1538"></path><path d="M774.32 919.2a24 24 0 0 1-16.776-6.832L571.36 730.616l-95.808 110.92a24.056 24.056 0 0 1-23.68 7.672 24.032 24.032 0 0 1-17.752-17.464l-60.352-238a24.008 24.008 0 0 1 46.536-11.8l49.032 193.36 82.376-95.376a24 24 0 0 1 17.144-8.288 23.68 23.68 0 0 1 17.792 6.808l168.224 164.224 63.432-716.216a24.072 24.072 0 0 1 26.024-21.792 24 24 0 0 1 21.792 26.024l-67.888 766.624a24.024 24.024 0 0 1-23.912 21.888z" fill="#324654" p-id="1539"></path><path d="M397.064 611.848c-0.4 0-0.8-0.008-1.192-0.032l-314.176-15.408a24 24 0 0 1-10.968-44.68l759.448-444.936a24 24 0 0 1 24.264 41.416l-689.92 404.2 233.696 11.464a24 24 0 0 1-1.152 47.976z" fill="#324654" p-id="1540"></path><path d="M842.184 152.44c-2.68 0-5.392-0.456-8.024-1.4a23.904 23.904 0 0 1-15.848-24.728l0.104-1.072a23.992 23.992 0 0 1 23.88-21.736h0.24a24 24 0 0 1 23.696 22.192l0.064 0.832a23.976 23.976 0 0 1-4.064 15.264 24.272 24.272 0 0 1-20.048 10.648z" fill="#324654" p-id="1541"></path></svg>