<svg t="1717485572583" class="icon" viewBox="0 0 1024 1024" version="1.1" xmlns="http://www.w3.org/2000/svg" p-id="2266" width="200" height="200"><path d="M512 512m-486.292887 0a486.292887 486.292887 0 1 0 972.585774 0 486.292887 486.292887 0 1 0-972.585774 0Z" fill="#4E6070" p-id="2267"></path><path d="M471.30564 163.62149c0-22.476586 18.217774-40.69436 40.69436-40.69436s40.69436 18.217774 40.69436 40.69436v146.496267c0 22.476586-18.217774 40.69436-40.69436 40.69436s-40.69436-18.217774-40.69436-40.69436V163.62149z" fill="#00CCC6" p-id="2268"></path><path d="M732.121439 731.680134c-58.792167 58.805021-136.967498 91.178845-220.121439 91.178845-171.654962 0-311.308854-139.675314-311.308854-311.325992 0-103.573958 51.298544-200.069891 137.224569-258.116552 18.620519-12.583632 43.920603-7.682142 56.504235 10.938377 12.583632 18.620519 7.682142 43.916318-10.938377 56.49995-63.492285 42.900887-101.397423 114.178142-101.397422 190.68251 0 126.770343 103.141222 229.937272 229.920134 229.937272 61.410008 0 119.152469-23.916184 162.580351-67.356921 43.427883-43.427883 67.344067-101.144636 67.344067-162.580351 0-76.517222-37.922276-147.803046-101.418845-190.69108-18.629088-12.579347-23.522008-37.875146-10.955515-56.499949a40.702929 40.702929 0 0 1 56.504234-10.95123c85.951732 58.042377 137.250276 154.542594 137.250277 258.137974-0.004285 83.179649-32.378109 161.354979-91.187415 220.147147z" fill="#00CCC6" p-id="2269"></path></svg>