<svg t="1717484095887" class="icon" viewBox="0 0 1024 1024" version="1.1" xmlns="http://www.w3.org/2000/svg" p-id="4045" width="200" height="200"><path d="M268.167063 61.86051C499.941977-63.674902 789.124621 7.236766 936.48393 225.795742c147.359309 218.526976 104.735509 513.213594-98.559538 681.020807-203.231047 167.775214-500.669653 153.823279-687.356778-32.255849a515.197585 515.197585 0 0 1-110.111484-163.359234C-62.135389 468.418604 36.424149 187.427921 268.167063 61.86051z m162.335239 272.158724a68.095681 68.095681 0 0 0-33.471843 60.575716v232.51091c-0.607997 24.959883 12.575941 48.287774 34.303839 60.607716 8.415961 4.575979 17.823916 6.975967 27.391872 7.039967a60.575716 60.575716 0 0 0 32.959845-10.079952l176.639172-116.447455c19.519909-12.927939 31.167854-34.879837 30.911855-58.271726a66.751687 66.751687 0 0 0-29.919859-56.703735l-178.239165-116.223455a58.175727 58.175727 0 0 0-60.575716-3.007986z" fill="#6DD36C" p-id="4046"></path></svg>