<svg t="1717485582989" class="icon" viewBox="0 0 1024 1024" version="1.1" xmlns="http://www.w3.org/2000/svg" p-id="2423" width="200" height="200"><path d="M367.577439 367.654561c-5.081439 42.935163-7.917791 88.938042-7.91779 137.207431 0 47.155414 2.7121 92.147146 7.579313 134.233975 45.655833 5.102862 95.5919 8.016335 149.409741 8.016334 53.530778 0 103.218343-2.887766 148.681372-7.943498 4.871498-42.108251 7.587883-87.121406 7.587883-134.31538 0-48.209406-2.836351-94.156586-7.913506-137.048904-47.266812-5.334226-97.160033-8.140586-148.368603-8.140586-53.672167 0.008569-103.488268 2.909188-149.05841 7.990628zM516.648703 716.470092c-47.528167 0-94.083749-2.343632-138.788418-6.786678 28.444921 151.680536 85.660385 250.974259 138.428518 250.97426 52.75528 0 109.962176-99.263732 138.415666-250.901423a1407.524418 1407.524418 0 0 1-138.055766 6.713841z" fill="#4E6070" p-id="2424"></path><path d="M882.756552 344.578142c59.242042 21.079833 98.681038 44.653255 124.546678 68.239532-41.229925-197.070728-198.094728-351.621891-396.399397-389.475615 56.114343 56.58564 94.974929 162.426109 115.17215 282.825372 57.532519 9.121741 110.613423 22.018142 156.680569 38.410711z" fill="#00CCC6" p-id="2425"></path><path d="M50.000335 503.392402c0 42.755213 90.163414 97.511364 246.526929 125.484987a1243.598728 1243.598728 0 0 1-6.225406-124.006828c0-42.335331 2.202243-85.107682 6.529606-127.010276-156.552033 27.947916-246.83113 82.751197-246.831129 125.532117zM306.475916 306.283113c20.188653-120.446393 59.062092-226.338276 115.185005-282.941054C223.09918 61.247197 66.06728 216.166828 25.098711 413.627448c25.844218-23.851916 65.510293-47.72954 125.429289-69.045021 45.874343-16.328301 98.706745-29.181858 155.947916-38.299314zM516.648703 290.318996a1408.321339 1408.321339 0 0 1 137.48164 6.662427c-28.633439-149.94959-85.424736-247.910828-137.84154-247.910829-52.416803 0-109.229523 97.99123-137.858677 247.979381a1407.944301 1407.944301 0 0 1 138.218577-6.730979zM305.978912 700.428854c-57.048368-9.113172-109.709389-21.941021-155.446627-38.217908-64.190661-22.836485-105.146377-48.616435-130.750662-74.156452 32.176736 223.866109 212.130812 399.955548 437.839264 426.245355-76.22159-42.755213-127.597255-167.897439-151.641975-313.870995zM882.756552 662.210946c-45.938611 16.341155-98.848134 29.207565-156.174996 38.33359-24.057573 145.926427-75.424669 271.012954-151.629121 313.755313 225.429958-26.268385 405.229791-201.959364 437.723582-425.422728-25.651414 25.265808-66.410042 50.728703-129.919465 73.333825zM983.288502 503.392402c0-23.894762-32.519498-60.99441-123.792602-93.471063-36.709757-13.063498-78.492385-23.719096-123.73262-31.83826a1242.416201 1242.416201 0 0 1 6.508184 126.783197c0 41.367029-2.103699 83.158226-6.238259 124.148218 156.821958-27.939347 247.255297-82.798326 247.255297-125.622092z" fill="#4E6070" p-id="2426"></path></svg>